<?xml version="1.0" encoding="UTF-8" standalone="no"?>
<!-- Created with Inkscape (http://www.inkscape.org/) -->

<svg
   version="1.1"
   id="svg15527"
   width="800"
   height="800"
   viewBox="0 0 800 800"
   sodipodi:docname="grand-piano-publicdomainvectors.org.svg"
   inkscape:version="1.2 (dc2aedaf03, 2022-05-15)"
   xmlns:inkscape="http://www.inkscape.org/namespaces/inkscape"
   xmlns:sodipodi="http://sodipodi.sourceforge.net/DTD/sodipodi-0.dtd"
   xmlns="http://www.w3.org/2000/svg"
   xmlns:svg="http://www.w3.org/2000/svg">
  <defs
     id="defs15531">
    <clipPath
       clipPathUnits="userSpaceOnUse"
       id="clipPath15543">
      <path
         d="M 0,600 H 600 V 0 H 0 Z"
         id="path15541" />
    </clipPath>
  </defs>
  <sodipodi:namedview
     id="namedview15529"
     pagecolor="#ffffff"
     bordercolor="#000000"
     borderopacity="0.25"
     inkscape:showpageshadow="2"
     inkscape:pageopacity="0.0"
     inkscape:pagecheckerboard="0"
     inkscape:deskcolor="#d1d1d1"
     showgrid="false"
     inkscape:zoom="1.04625"
     inkscape:cx="400"
     inkscape:cy="400.4779"
     inkscape:window-width="1920"
     inkscape:window-height="1017"
     inkscape:window-x="-8"
     inkscape:window-y="-8"
     inkscape:window-maximized="1"
     inkscape:current-layer="g15535">
    <inkscape:page
       x="0"
       y="0"
       id="page15533"
       width="800"
       height="800" />
  </sodipodi:namedview>
  <g
     id="g15535"
     inkscape:groupmode="layer"
     inkscape:label="Page 1"
     transform="matrix(1.3333333,0,0,-1.3333333,0,800)">
    <g
       id="g15537">
      <g
         id="g15539"
         clip-path="url(#clipPath15543)">
        <g
           id="g15545"
           transform="translate(121.0376,124.0527)">
          <path
             d="m 0,0 h 354.192 c 9.179,0 16.688,-7.51 16.688,-16.689 0,-9.178 -7.509,-16.688 -16.688,-16.688 L 0,-33.377 c -9.18,0 -16.689,7.51 -16.689,16.688 C -16.689,-7.51 -9.18,0 0,0"
             style="fill:#f9e7d4;fill-opacity:1;fill-rule:evenodd;stroke:none"
             id="path15547" />
        </g>
        <g
           id="g15549"
           transform="translate(406.0918,226.6709)">
          <path
             d="M 0,0 H 25.695 L 19.603,-110.466 H 6.093 Z"
             style="fill:#6c6e6f;fill-opacity:1;fill-rule:evenodd;stroke:none"
             id="path15551" />
        </g>
        <g
           id="g15553"
           transform="translate(418.9404,226.6709)">
          <path
             d="M 0,0 H 12.847 L 6.755,-110.466 H 0 Z"
             style="fill:#828383;fill-opacity:1;fill-rule:evenodd;stroke:none"
             id="path15555" />
        </g>
        <path
           d="m 379.602,221.373 h 82.65 v 24.371 h -82.65 z"
           style="fill:#5b5c5e;fill-opacity:1;fill-rule:evenodd;stroke:none"
           id="path15557" />
        <path
           d="m 371.921,229.584 h 98.015 v 24.371 h -98.015 z"
           style="fill:#464648;fill-opacity:1;fill-rule:evenodd;stroke:none"
           id="path15559" />
        <g
           id="g15561"
           transform="translate(418.9404,130.6133)">
          <path
             d="M 0,0 C 7.955,0 14.406,-6.451 14.406,-14.408 H -14.405 C -14.405,-6.451 -7.956,0 0,0"
             style="fill:#464648;fill-opacity:1;fill-rule:evenodd;stroke:none"
             id="path15563" />
        </g>
        <g
           id="g15565"
           transform="translate(418.9404,104.9473)">
          <path
             d="m 0,0 c 6.201,0 11.258,5.059 11.258,11.258 0,6.203 -5.057,11.26 -11.258,11.26 -6.201,0 -11.259,-5.057 -11.259,-11.26 C -11.259,5.059 -6.201,0 0,0"
             style="fill:#f2a50f;fill-opacity:1;fill-rule:evenodd;stroke:none"
             id="path15567" />
        </g>
        <g
           id="g15569"
           transform="translate(416.9531,125.7793)">
          <path
             d="m 0,0 c 4.115,0 7.171,-3.338 6.824,-7.453 -0.346,-4.117 -3.965,-7.451 -8.081,-7.451 -4.115,0 -7.17,3.334 -6.824,7.451 C -7.733,-3.338 -4.116,0 0,0"
             style="fill:#fbca07;fill-opacity:1;fill-rule:evenodd;stroke:none"
             id="path15571" />
        </g>
        <g
           id="g15573"
           transform="translate(174.5664,226.6709)">
          <path
             d="M 0,0 H 25.696 L 19.604,-110.466 H 6.093 Z"
             style="fill:#6c6e6f;fill-opacity:1;fill-rule:evenodd;stroke:none"
             id="path15575" />
        </g>
        <g
           id="g15577"
           transform="translate(187.415,226.6709)">
          <path
             d="M 0,0 H 12.848 L 6.755,-110.466 H 0 Z"
             style="fill:#828383;fill-opacity:1;fill-rule:evenodd;stroke:none"
             id="path15579" />
        </g>
        <path
           d="m 148.077,221.373 h 82.65 v 24.371 h -82.65 z"
           style="fill:#5b5c5e;fill-opacity:1;fill-rule:evenodd;stroke:none"
           id="path15581" />
        <path
           d="m 140.395,229.584 h 98.014 v 24.371 h -98.014 z"
           style="fill:#464648;fill-opacity:1;fill-rule:evenodd;stroke:none"
           id="path15583" />
        <g
           id="g15585"
           transform="translate(187.415,130.6133)">
          <path
             d="M 0,0 C 7.956,0 14.406,-6.451 14.406,-14.408 H -14.407 C -14.407,-6.451 -7.956,0 0,0"
             style="fill:#464648;fill-opacity:1;fill-rule:evenodd;stroke:none"
             id="path15587" />
        </g>
        <g
           id="g15589"
           transform="translate(187.415,104.9473)">
          <path
             d="m 0,0 c 6.201,0 11.258,5.059 11.258,11.258 0,6.203 -5.057,11.26 -11.258,11.26 -6.201,0 -11.258,-5.057 -11.258,-11.26 C -11.258,5.059 -6.201,0 0,0"
             style="fill:#f2a50f;fill-opacity:1;fill-rule:evenodd;stroke:none"
             id="path15591" />
        </g>
        <g
           id="g15593"
           transform="translate(185.4277,125.7793)">
          <path
             d="m 0,0 c 4.115,0 7.171,-3.338 6.824,-7.453 -0.346,-4.117 -3.964,-7.451 -8.08,-7.451 -4.116,0 -7.172,3.334 -6.825,7.451 C -7.733,-3.338 -4.115,0 0,0"
             style="fill:#fbca07;fill-opacity:1;fill-rule:evenodd;stroke:none"
             id="path15595" />
        </g>
        <g
           id="g15597"
           transform="translate(191.2104,358.1411)">
          <path
             d="m 0,0 113.918,197.309 47.346,-18.854 c 15.984,-6.366 25.819,-21.28 25.377,-38.479 l -0.367,-14.262 c -0.511,-19.857 13.138,-36.837 32.642,-40.606 l 5.372,-1.039 C 240,81.034 251.793,69.887 255.713,54.371 L 269.449,0 Z"
             style="fill:#464648;fill-opacity:1;fill-rule:evenodd;stroke:none"
             id="path15599" />
        </g>
        <g
           id="g15601"
           transform="translate(191.2104,361.0552)">
          <path
             d="m 0,0 h 300.708 v -121.907 h -387.57 v 36.918 c 0,15.442 12.595,28.035 28.037,28.035 h 2.752 c 15.443,0 28.037,12.595 28.037,28.036 v 0.882 C -28.036,-12.595 -15.441,0 0,0"
             style="fill:#2f2d2d;fill-opacity:1;fill-rule:evenodd;stroke:none"
             id="path15603" />
        </g>
        <path
           d="M 377.667,239.148 H 491.918 V 361.055 H 377.667 Z"
           style="fill:#110f0d;fill-opacity:1;fill-rule:evenodd;stroke:none"
           id="path15605" />
        <g
           id="g15607"
           transform="translate(297.6152,361.0552)">
          <path
             d="M 0,0 -0.53,120.587 H 5.298 L 37.468,0.528 Z"
             style="fill:#5f6062;fill-opacity:1;fill-rule:evenodd;stroke:none"
             id="path15609" />
        </g>
        <g
           id="g15611"
           transform="translate(297.085,481.6421)">
          <path
             d="M 0,0 -11.39,-120.587 H 0.53 Z"
             style="fill:#3c3c3d;fill-opacity:1;fill-rule:evenodd;stroke:none"
             id="path15613" />
        </g>
      </g>
    </g>
  </g>
</svg>
